# xmcd CD database file
#
# Track frame offsets:
#	150
#	16112
#	38717
#	53527
#	71585
#	84067
#	100882
#	114965
#	131455
#	145682
#	163200
#	177567
#
# Disc length: 2565 seconds
#
# Revision: 3
# Processed by: cddbd v1.5.2PL0 Copyright (c) Steve Scherf et al.
# Submitted via: CDex 1.79
#
DISCID=8f0a030c
DTITLE=Malibu Storm - Malibu Storm
DYEAR=2004
DGENRE=Country
TTITLE0=The Bird Song
TTITLE1=Photograph
TTITLE2=I'd Be With You
TTITLE3=Light In Your Eyes
TTITLE4=Long Way To Fall
TTITLE5=Give Me A Little More
TTITLE6=Clover
TTITLE7=Old Hickory Lake
TTITLE8=Working In A Coal Mine
TTITLE9=Hammer And Nails
TTITLE10=Takin' The Wheel
TTITLE11=Some People's Lives
EXTD=YEAR: 2004
EXTT0=
EXTT1=
EXTT2=
EXTT3=
EXTT4=
EXTT5=
EXTT6=
EXTT7=
EXTT8=
EXTT9=
EXTT10=
EXTT11=
PLAYORDER=
